<mxfile host="app.diagrams.net" modified="2021-11-05T09:38:49.824Z" agent="5.0 (Windows NT 10.0; WOW64) AppleWebKit/537.36 (KHTML, like Gecko) Chrome/86.0.4240.198 Safari/537.36" etag="RZBUVIRCUsd67KFfNr_a" version="15.6.6" type="github">
  <diagram id="xD81MZDS0GHcdAWoUA-H" name="Page-1">
    <mxGraphModel dx="865" dy="863" grid="0" gridSize="10" guides="1" tooltips="1" connect="1" arrows="1" fold="1" page="0" pageScale="1" pageWidth="827" pageHeight="1169" math="0" shadow="0">
      <root>
        <mxCell id="0" />
        <mxCell id="1" parent="0" />
        <mxCell id="JH8pPmAOKIxhf_1-U10Z-1" value="DUT" style="rounded=1;whiteSpace=wrap;html=1;fillColor=#dae8fc;strokeColor=#6c8ebf;fontColor=default;" vertex="1" parent="1">
          <mxGeometry x="250" y="150" width="250" height="100" as="geometry" />
        </mxCell>
        <mxCell id="JH8pPmAOKIxhf_1-U10Z-2" value="Host" style="rounded=1;whiteSpace=wrap;html=1;fillColor=#d5e8d4;strokeColor=#82b366;fontColor=default;" vertex="1" parent="1">
          <mxGeometry x="250" y="-20" width="250" height="70" as="geometry" />
        </mxCell>
        <mxCell id="JH8pPmAOKIxhf_1-U10Z-3" value="" style="shape=flexArrow;endArrow=classic;html=1;rounded=0;fontColor=default;width=40;endSize=9.558333333333334;strokeColor=default;labelBackgroundColor=default;exitX=0.25;exitY=1;exitDx=0;exitDy=0;entryX=0.25;entryY=0;entryDx=0;entryDy=0;endWidth=21;fontSize=16;fontStyle=1" edge="1" parent="1" source="JH8pPmAOKIxhf_1-U10Z-2" target="JH8pPmAOKIxhf_1-U10Z-1">
          <mxGeometry x="0.2" width="50" height="50" relative="1" as="geometry">
            <mxPoint x="310" y="130" as="sourcePoint" />
            <mxPoint x="360" y="80" as="targetPoint" />
            <mxPoint as="offset" />
          </mxGeometry>
        </mxCell>
        <mxCell id="JH8pPmAOKIxhf_1-U10Z-4" value="host_cmd" style="edgeLabel;html=1;align=center;verticalAlign=top;resizable=0;points=[];fontColor=default;labelBackgroundColor=default;fontSize=16;rotation=90;" vertex="1" connectable="0" parent="JH8pPmAOKIxhf_1-U10Z-3">
          <mxGeometry x="-0.2857" y="3" relative="1" as="geometry">
            <mxPoint x="15" y="4" as="offset" />
          </mxGeometry>
        </mxCell>
        <mxCell id="JH8pPmAOKIxhf_1-U10Z-5" value="32B" style="shape=flexArrow;endArrow=classic;html=1;rounded=0;fontColor=default;width=40;endSize=9.558333333333334;strokeColor=default;labelBackgroundColor=default;exitX=0.75;exitY=0;exitDx=0;exitDy=0;entryX=0.75;entryY=1;entryDx=0;entryDy=0;endWidth=21;fontSize=16;fontStyle=1" edge="1" parent="1" source="JH8pPmAOKIxhf_1-U10Z-1" target="JH8pPmAOKIxhf_1-U10Z-2">
          <mxGeometry x="-0.2" width="50" height="50" relative="1" as="geometry">
            <mxPoint x="420" y="140" as="sourcePoint" />
            <mxPoint x="420" y="240.00000000000023" as="targetPoint" />
            <mxPoint as="offset" />
          </mxGeometry>
        </mxCell>
        <mxCell id="JH8pPmAOKIxhf_1-U10Z-7" value="rdata" style="edgeLabel;html=1;align=center;verticalAlign=middle;resizable=0;points=[];fontColor=default;fontStyle=0;labelBackgroundColor=default;fontSize=16;spacingLeft=-4;" vertex="1" connectable="0" parent="JH8pPmAOKIxhf_1-U10Z-5">
          <mxGeometry x="-0.1833" y="-2" relative="1" as="geometry">
            <mxPoint y="-19" as="offset" />
          </mxGeometry>
        </mxCell>
        <mxCell id="JH8pPmAOKIxhf_1-U10Z-10" value="" style="shape=flexArrow;endArrow=classic;html=1;rounded=0;fontColor=default;width=40;endSize=9.558333333333334;strokeColor=default;labelBackgroundColor=default;exitX=0.25;exitY=1;exitDx=0;exitDy=0;entryX=0.25;entryY=0;entryDx=0;entryDy=0;endWidth=21;fontSize=16;fontStyle=1" edge="1" parent="1">
          <mxGeometry x="0.2" width="50" height="50" relative="1" as="geometry">
            <mxPoint x="310" y="250" as="sourcePoint" />
            <mxPoint x="310" y="350.0000000000002" as="targetPoint" />
            <mxPoint as="offset" />
          </mxGeometry>
        </mxCell>
        <mxCell id="JH8pPmAOKIxhf_1-U10Z-11" value="AR_req" style="edgeLabel;html=1;align=center;verticalAlign=top;resizable=0;points=[];fontColor=default;labelBackgroundColor=default;fontSize=16;rotation=90;" vertex="1" connectable="0" parent="JH8pPmAOKIxhf_1-U10Z-10">
          <mxGeometry x="-0.2857" y="3" relative="1" as="geometry">
            <mxPoint x="17" y="4" as="offset" />
          </mxGeometry>
        </mxCell>
        <mxCell id="JH8pPmAOKIxhf_1-U10Z-12" value="Mem" style="rounded=1;whiteSpace=wrap;html=1;fillColor=#d5e8d4;strokeColor=#82b366;labelBackgroundColor=none;labelBorderColor=none;fontColor=default;" vertex="1" parent="1">
          <mxGeometry x="250" y="350" width="250" height="70" as="geometry" />
        </mxCell>
        <mxCell id="JH8pPmAOKIxhf_1-U10Z-13" value="16B" style="shape=flexArrow;endArrow=classic;html=1;rounded=0;fontColor=default;width=40;endSize=9.558333333333334;strokeColor=default;labelBackgroundColor=default;exitX=0.75;exitY=0;exitDx=0;exitDy=0;entryX=0.75;entryY=1;entryDx=0;entryDy=0;endWidth=21;fontSize=16;fontStyle=1" edge="1" parent="1">
          <mxGeometry x="-0.2" width="50" height="50" relative="1" as="geometry">
            <mxPoint x="440" y="350.0000000000002" as="sourcePoint" />
            <mxPoint x="440" y="250" as="targetPoint" />
            <mxPoint as="offset" />
          </mxGeometry>
        </mxCell>
        <mxCell id="JH8pPmAOKIxhf_1-U10Z-14" value="rdata" style="edgeLabel;html=1;align=center;verticalAlign=middle;resizable=0;points=[];fontColor=default;fontStyle=0;labelBackgroundColor=default;fontSize=16;spacingLeft=-4;" vertex="1" connectable="0" parent="JH8pPmAOKIxhf_1-U10Z-13">
          <mxGeometry x="-0.1833" y="-2" relative="1" as="geometry">
            <mxPoint y="-19" as="offset" />
          </mxGeometry>
        </mxCell>
      </root>
    </mxGraphModel>
  </diagram>
</mxfile>
